# xmcd CD database file
#
# Track frame offsets:
#	151
#	29784
#	55387
#	80324
#	105219
#	133204
#	159145
#
# Disc length: 2418 seconds
#
# Revision: 0
# Processed by: cddbd v1.5.2PL0 Copyright (c) Steve Scherf et al.
# Submitted via: Feurio! 1.68 - http://www.feurio.com
#
DISCID=51097007
DTITLE=Various Artist - Jacks Steppers Extras #1
DYEAR=1900
DGENRE=R&B
TTITLE0=D.J. Inc - The Bubby Duck 
TTITLE1=D. J. Inc - People Make The World Go Round
TTITLE2=Maty J. Blige - All That I Can Say
TTITLE3=Shakatak - Space Dance
TTITLE4=Mike McGee - The Ghost
TTITLE5=Eric Clapton - Pilgrim
TTITLE6=Tom Browne - Hangin' On A String (Pocket Mix)
EXTD=
EXTT0=
EXTT1=
EXTT2=
EXTT3=
EXTT4=
EXTT5=
EXTT6=
PLAYORDER=
